<svg width="93" height="13" viewBox="0 0 93 13" fill="none" xmlns="http://www.w3.org/2000/svg">
<path d="M1.4978 12.7735C1.04392 12.7735 0.680817 12.6376 0.40849 12.3659C0.136163 12.0941 0 11.7318 0 11.2336V2.12972C0 1.6315 0.136163 1.26915 0.40849 0.997397C0.680817 0.72564 1.04392 0.589761 1.4978 0.589761H5.67348C7.0805 0.589761 8.12442 0.861515 8.85063 1.40503C9.57683 1.94854 9.93993 2.71852 9.93993 3.71496C9.93993 4.39436 9.75838 4.93787 9.39528 5.3455C9.03218 5.75314 8.48752 6.07019 7.76132 6.29665C8.66907 6.52311 9.34989 6.88546 9.75838 7.42897C10.1669 7.97248 10.3938 8.60658 10.3938 9.33127C10.3938 10.5089 9.98532 11.3694 9.21373 11.9582C8.44213 12.5471 7.17128 12.8188 5.44654 12.8188H1.4978V12.7735ZM5.12882 5.70784C5.76425 5.70784 6.26352 5.57197 6.58123 5.30021C6.89895 5.02845 7.0805 4.66611 7.0805 4.16789C7.0805 3.66967 6.94434 3.30733 6.62662 3.03557C6.30891 2.80911 5.80964 2.67323 5.12882 2.67323H2.76866V5.70784H5.12882ZM5.31037 10.6448C6.12736 10.6448 6.7174 10.5089 7.0805 10.2824C7.39821 10.0107 7.57976 9.60302 7.57976 9.01422C7.57976 8.4707 7.39821 8.06307 7.03511 7.83661C6.67201 7.56485 6.12736 7.47426 5.31037 7.47426H2.81404V10.69L5.31037 10.6448Z" fill="#1F2937"/>
<path d="M18.3821 12.9547C16.6573 12.9547 15.3411 12.5017 14.4333 11.5959C13.571 10.69 13.1171 9.37654 13.1171 7.61013V1.72206C13.1171 1.31443 13.2079 0.997381 13.4348 0.770917C13.6617 0.544453 13.9341 0.453865 14.3426 0.453865H14.7057C15.5226 0.453865 15.9311 0.861502 15.9311 1.72206V7.56483C15.9311 9.55772 16.7481 10.5089 18.4275 10.5089C20.0614 10.5089 20.8784 9.51242 20.8784 7.56483V1.72206C20.8784 0.861502 21.2869 0.453865 22.1039 0.453865H22.467C23.284 0.453865 23.6471 0.861502 23.6471 1.72206V7.56483C23.6471 9.33125 23.1932 10.69 22.3308 11.5959C21.4684 12.5017 20.1522 12.9547 18.3821 12.9547Z" fill="#1F2937"/>
<path d="M30.9999 13C30.1829 13 29.4567 12.9094 28.8667 12.7735C28.2766 12.6376 27.7773 12.4112 27.4142 12.1847C27.0511 11.9582 26.7334 11.6865 26.5519 11.4147C26.3703 11.143 26.2796 10.8259 26.2796 10.5542C26.2796 10.373 26.3249 10.1918 26.4157 10.0107C26.5065 9.82948 26.6427 9.6936 26.7334 9.55772C26.8696 9.42185 26.9604 9.33126 27.0965 9.24067C27.1873 9.15009 27.2781 9.15009 27.3235 9.15009C27.505 9.37655 27.732 9.60302 28.0043 9.78419C28.2766 9.96536 28.5489 10.1465 28.8667 10.3277C29.1844 10.5089 29.5021 10.5995 29.8652 10.69C30.2283 10.7806 30.5914 10.8259 30.9545 10.8259C31.6807 10.8259 32.2254 10.69 32.6338 10.4183C32.9969 10.1465 33.1785 9.78419 33.1785 9.33126C33.1785 9.0595 33.0877 8.83304 32.9516 8.65187C32.8154 8.4707 32.6338 8.33482 32.3615 8.24424C32.1346 8.15365 31.8169 8.06306 31.4991 7.97248C31.1814 7.88189 30.8183 7.8366 30.5006 7.74601C30.0014 7.65543 29.5475 7.47426 29.0482 7.33838C28.5943 7.15721 28.1405 6.97604 27.7773 6.65899C27.4142 6.38723 27.0965 6.02489 26.8696 5.61725C26.6427 5.20962 26.5519 4.6661 26.5519 4.03201C26.5519 3.48849 26.6427 2.94498 26.8696 2.49205C27.0965 2.03912 27.4142 1.63149 27.8227 1.31444C28.2312 0.997389 28.7305 0.725632 29.3205 0.544461C29.9106 0.36329 30.546 0.272705 31.2722 0.272705C31.9984 0.272705 32.6792 0.317997 33.2239 0.453875C33.7685 0.589754 34.2224 0.770924 34.5855 0.952095C34.9486 1.17856 35.221 1.40503 35.4025 1.67678C35.5841 1.94854 35.6748 2.22029 35.6748 2.44676C35.6748 2.67322 35.6294 2.85439 35.4933 3.03557C35.4025 3.21674 35.2663 3.35262 35.1302 3.48849C34.994 3.62437 34.8578 3.71496 34.7671 3.80554C34.6309 3.89613 34.5855 3.89613 34.5855 3.89613C34.2224 3.48849 33.7685 3.12615 33.1785 2.8091C32.5885 2.53735 31.9984 2.35617 31.3176 2.35617C30.6368 2.35617 30.1375 2.49205 29.729 2.76381C29.3659 3.03556 29.1844 3.39791 29.1844 3.80554C29.1844 4.0773 29.2298 4.25847 29.3659 4.43964C29.5021 4.57552 29.6836 4.7114 29.9106 4.84728C30.1375 4.98316 30.4098 5.02845 30.7276 5.07374C31.0453 5.11903 31.4084 5.20962 31.7715 5.3002C32.3161 5.43608 32.8608 5.57196 33.36 5.75313C33.8593 5.9343 34.3132 6.16077 34.6763 6.47782C35.0394 6.79487 35.3571 7.11191 35.5841 7.51955C35.811 7.92718 35.9018 8.4254 35.9018 9.01421C35.9018 10.2371 35.4933 11.1883 34.6309 11.8677C33.8593 12.6829 32.6338 13 30.9999 13Z" fill="#1F2937"/>
<path d="M38.8974 11.5506V1.72206C38.8974 0.861502 39.3058 0.453865 40.0774 0.453865H40.4405C41.2575 0.453865 41.666 0.861502 41.666 1.72206V11.5506C41.666 12.4112 41.2575 12.8188 40.4405 12.8188H40.0774C39.3058 12.8188 38.8974 12.4112 38.8974 11.5506Z" fill="#1F2937"/>
<path d="M45.1609 11.5506V1.85794C45.1609 1.40501 45.2517 1.08797 45.4786 0.861501C45.7055 0.635037 45.9779 0.499159 46.3864 0.499159H46.7041C47.0672 0.499159 47.3395 0.544451 47.521 0.680329C47.7026 0.816208 47.8842 0.99738 48.1111 1.26914L53.3761 8.51598V1.72206C53.3761 0.861502 53.7846 0.453865 54.5562 0.453865H54.8285C55.6001 0.453865 56.0086 0.861502 56.0086 1.72206V11.4147C56.0086 11.8676 55.9178 12.23 55.6909 12.4565C55.4639 12.6829 55.1916 12.8188 54.8285 12.8188H54.6016C54.42 12.8188 54.2384 12.8188 54.1477 12.7735C54.0115 12.7282 53.9207 12.7282 53.83 12.6376C53.7392 12.547 53.6484 12.5017 53.5576 12.4112C53.4669 12.3206 53.3761 12.23 53.2853 12.0941L47.7934 4.57551V11.5506C47.7934 12.4112 47.3849 12.8188 46.5679 12.8188H46.2956C45.5694 12.8188 45.1609 12.4112 45.1609 11.5506Z" fill="#1F2937"/>
<path d="M59.7757 12.3659C59.5034 12.0941 59.3673 11.7318 59.3673 11.2336V2.12972C59.3673 1.6315 59.5034 1.26915 59.7757 0.997397C60.0481 0.72564 60.4112 0.589761 60.8651 0.589761H67.6732C68.1271 0.589761 68.4448 0.680345 68.6264 0.906809C68.8533 1.13327 68.9441 1.40503 68.9441 1.76737V1.85796C68.9441 2.62793 68.5356 3.03557 67.6732 3.03557H62.1813V5.48138H66.1754C66.6293 5.48138 66.947 5.57197 67.174 5.75314C67.3555 5.93431 67.4917 6.20607 67.4917 6.52311V6.6137C67.4917 7.38368 67.0832 7.74602 66.2208 7.74602H62.2267V10.4183H67.764C68.6264 10.4183 69.0349 10.7806 69.0349 11.5053V11.5959C69.0349 12.4112 68.6264 12.8188 67.764 12.8188H60.8651C60.3658 12.7735 60.0027 12.6376 59.7757 12.3659Z" fill="#1F2937"/>
<path d="M75.9338 13C75.1168 13 74.3906 12.9094 73.8006 12.7735C73.2105 12.6376 72.7113 12.4112 72.3482 12.1847C71.9851 11.9582 71.6674 11.6865 71.4858 11.4147C71.3043 11.143 71.2135 10.8259 71.2135 10.5542C71.2135 10.373 71.2589 10.1918 71.3496 10.0107C71.4404 9.82948 71.5766 9.6936 71.6674 9.55772C71.8035 9.42185 71.8943 9.33126 72.0305 9.24067C72.1212 9.15009 72.212 9.15009 72.2574 9.15009C72.4389 9.37655 72.6659 9.60302 72.9382 9.78419C73.2105 9.96536 73.4829 10.1465 73.8006 10.3277C74.1183 10.5089 74.436 10.5995 74.7991 10.69C75.1622 10.7806 75.5253 10.8259 75.8884 10.8259C76.6146 10.8259 77.1593 10.69 77.5678 10.4183C77.9309 10.1465 78.1124 9.78419 78.1124 9.33126C78.1124 9.0595 78.0217 8.83304 77.8855 8.65187C77.7493 8.4707 77.5678 8.33482 77.2954 8.24424C77.0685 8.15365 76.7508 8.06306 76.4331 7.97248C76.1154 7.88189 75.7523 7.8366 75.4345 7.74601C74.9353 7.65543 74.4814 7.47426 73.9821 7.33838C73.5283 7.15721 73.0744 6.97604 72.7113 6.65899C72.3482 6.38723 72.0305 6.02489 71.8035 5.61725C71.5766 5.20962 71.4858 4.6661 71.4858 4.03201C71.4858 3.48849 71.5766 2.94498 71.8035 2.49205C72.0305 2.03912 72.3482 1.63149 72.7567 1.31444C73.1652 0.997389 73.6644 0.725632 74.2545 0.544461C74.8445 0.36329 75.4799 0.272705 76.2061 0.272705C76.9324 0.272705 77.6132 0.317997 78.1578 0.453875C78.7025 0.589754 79.1563 0.770924 79.5194 0.952095C79.8825 1.17856 80.1549 1.40503 80.3364 1.67678C80.518 1.94854 80.6088 2.22029 80.6088 2.44676C80.6088 2.67322 80.5634 2.85439 80.4272 3.03557C80.3364 3.21674 80.2003 3.35262 80.0641 3.48849C79.9279 3.62437 79.7918 3.71496 79.701 3.80554C79.5648 3.89613 79.5194 3.89613 79.5194 3.89613C79.1563 3.48849 78.7025 3.12615 78.1124 2.8091C77.5224 2.53735 76.9323 2.35617 76.2515 2.35617C75.5707 2.35617 75.0714 2.49205 74.663 2.76381C74.2999 3.03556 74.1183 3.39791 74.1183 3.80554C74.1183 4.0773 74.1637 4.25847 74.2999 4.43964C74.436 4.57552 74.6176 4.7114 74.8445 4.84728C75.0714 4.98316 75.3438 5.02845 75.6615 5.07374C75.9792 5.11903 76.3423 5.20962 76.7054 5.3002C77.2501 5.43608 77.7947 5.57196 78.294 5.75313C78.7932 5.9343 79.2471 6.16077 79.6102 6.47782C79.9733 6.79487 80.291 7.11191 80.518 7.51955C80.7449 7.92718 80.8357 8.4254 80.8357 9.01421C80.8357 10.2371 80.4272 11.1883 79.5648 11.8677C78.8386 12.6829 77.5678 13 75.9338 13Z" fill="#1F2937"/>
<path d="M87.8254 13C87.0084 13 86.2822 12.9094 85.6922 12.7735C85.1021 12.6376 84.6029 12.4112 84.2398 12.1847C83.8767 11.9582 83.559 11.6865 83.3774 11.4147C83.1959 11.143 83.1051 10.8259 83.1051 10.5542C83.1051 10.373 83.1505 10.1918 83.2413 10.0107C83.332 9.82948 83.4682 9.6936 83.559 9.55772C83.6951 9.42185 83.7859 9.33126 83.9221 9.24067C84.0128 9.15009 84.1036 9.15009 84.149 9.15009C84.3306 9.37655 84.5575 9.60302 84.8298 9.78419C85.1021 9.96536 85.3745 10.1465 85.6922 10.3277C86.0099 10.5089 86.3276 10.5995 86.6907 10.69C87.0538 10.7806 87.4169 10.8259 87.78 10.8259C88.5062 10.8259 89.0509 10.69 89.4594 10.4183C89.8225 10.1465 90.004 9.78419 90.004 9.33126C90.004 9.0595 89.9133 8.83304 89.7771 8.65187C89.6409 8.4707 89.4594 8.33482 89.1871 8.24424C88.9601 8.15365 88.6424 8.06306 88.3247 7.97248C88.007 7.88189 87.6439 7.8366 87.3262 7.74601C86.8269 7.65543 86.373 7.47426 85.8737 7.33838C85.4199 7.15721 84.966 6.97604 84.6029 6.65899C84.2398 6.38723 83.9221 6.02489 83.6951 5.61725C83.4682 5.20962 83.3774 4.6661 83.3774 4.03201C83.3774 3.48849 83.4682 2.94498 83.6951 2.49205C83.9221 2.03912 84.2398 1.63149 84.6483 1.31444C85.0568 0.997389 85.556 0.725632 86.1461 0.544461C86.7361 0.36329 87.3715 0.272705 88.0977 0.272705C88.824 0.272705 89.5048 0.317997 90.0494 0.453875C90.5941 0.589754 91.048 0.770924 91.4111 0.952095C91.7742 1.17856 92.0465 1.40503 92.228 1.67678C92.4096 1.94854 92.5004 2.22029 92.5004 2.44676C92.5004 2.67322 92.455 2.85439 92.3188 3.03557C92.228 3.21674 92.0919 3.35262 91.9557 3.48849C91.8195 3.62437 91.6834 3.71496 91.5926 3.80554C91.4565 3.89613 91.4111 3.89613 91.4111 3.89613C91.048 3.48849 90.5941 3.12615 90.004 2.8091C89.414 2.53735 88.824 2.35617 88.1431 2.35617C87.4623 2.35617 86.9631 2.49205 86.5546 2.76381C86.1915 3.03556 86.0099 3.39791 86.0099 3.80554C86.0099 4.0773 86.0553 4.25847 86.1915 4.43964C86.3276 4.57552 86.5092 4.7114 86.7361 4.84728C86.9631 4.98316 87.2354 5.02845 87.5531 5.07374C87.8708 5.11903 88.2339 5.20962 88.597 5.3002C89.1417 5.43608 89.6863 5.57196 90.1856 5.75313C90.6849 5.9343 91.1387 6.16077 91.5018 6.47782C91.8649 6.79487 92.1827 7.11191 92.4096 7.51955C92.6365 7.92718 92.7273 8.4254 92.7273 9.01421C92.7273 10.2371 92.3188 11.1883 91.4564 11.8677C90.6849 12.6829 89.4594 13 87.8254 13Z" fill="#1F2937"/>
</svg>
