<svg width="33" height="31" viewBox="0 0 33 31" fill="none" xmlns="http://www.w3.org/2000/svg">
<path d="M16.176 1.68084C17.4841 0.841567 18.9605 0.299807 20.501 0.0938351C22.0414 -0.112137 23.6083 0.022706 25.091 0.488835C26.39 0.8963 27.5925 1.56379 28.6253 2.4507C29.6582 3.3376 30.4998 4.42538 31.099 5.64783C32.5327 8.66504 32.7273 12.1239 31.641 15.2828C30.641 18.1888 28.533 17.0828 29.43 14.5268C30.2928 11.9767 30.1186 9.18965 28.945 6.76684C28.4835 5.83098 27.8374 4.99825 27.0454 4.31887C26.2535 3.63949 25.3321 3.12752 24.337 2.81383C23.0792 2.41366 21.7431 2.32489 20.4435 2.55517C19.1439 2.78545 17.9196 3.32788 16.876 4.13584C16.6707 4.29148 16.4201 4.37573 16.1625 4.37573C15.9048 4.37573 15.6543 4.29148 15.449 4.13584C14.4057 3.32681 13.1812 2.78379 11.8811 2.55365C10.5811 2.32351 9.24461 2.41315 7.98697 2.81484C6.98538 3.12167 6.05666 3.629 5.25728 4.30598C4.45789 4.98296 3.80455 5.81545 3.33697 6.75283C2.18993 9.17365 2.02647 11.945 2.88097 14.4838C3.777 17.0274 5.2407 19.3334 7.16097 21.2268C9.98308 23.9849 13.1021 26.4218 16.461 28.4928C16.6699 28.6421 16.8271 28.853 16.9104 29.0959C16.9938 29.3388 16.9992 29.6017 16.926 29.8478C16.8557 30.093 16.7092 30.3094 16.5076 30.4657C16.306 30.6219 16.0599 30.7099 15.805 30.7168C15.571 30.719 15.3419 30.6492 15.149 30.5168C11.6497 28.3599 8.4011 25.8206 5.46297 22.9458C3.29134 20.7818 1.6466 18.1472 0.655965 15.2458C-0.392771 12.0913 -0.177701 8.65307 1.25597 5.65383C1.85404 4.43066 2.69475 3.34198 3.72693 2.45403C4.75911 1.56609 5.96117 0.89746 7.25997 0.488835C8.74274 0.0225523 10.3098 -0.11237 11.8505 0.0936034C13.3911 0.299577 14.8678 0.841419 16.176 1.68084Z" fill="url(#paint0_linear_5621_2818)"/>
<path d="M12.446 5.85952C13.0694 5.87745 13.6866 5.98869 14.277 6.18952H14.336C14.3689 6.20442 14.3993 6.22432 14.426 6.24852C14.644 6.31497 14.855 6.40237 15.056 6.50952L15.436 6.67952C15.586 6.75952 15.766 6.90852 15.866 6.96952C15.9696 7.02696 16.0698 7.0904 16.166 7.15952C17.2692 6.31041 18.6239 5.85299 20.016 5.85952C20.6476 5.85501 21.2758 5.95295 21.876 6.14952C25.567 7.34952 26.897 11.3995 25.786 14.9395C25.1576 16.7485 24.129 18.3923 22.777 19.7485C20.8459 21.6186 18.7239 23.281 16.446 24.7085L16.196 24.8595L15.936 24.6985C13.643 23.2755 11.5077 21.6128 9.56603 19.7385C8.22038 18.381 7.19239 16.742 6.55603 14.9395C5.42603 11.3995 6.75603 7.34952 10.487 6.12852C10.7755 6.02902 11.0734 5.95899 11.376 5.91952H11.496C11.7742 5.8792 12.0549 5.85914 12.336 5.85952H12.446Z" fill="url(#paint1_linear_5621_2818)"/>
<path d="M18.666 15.7695C20.3841 15.8361 22.0124 16.5545 23.2198 17.7786C24.4272 19.0027 25.1231 20.6407 25.166 22.3595C25.0971 24.0162 24.3742 25.578 23.1559 26.7027C21.9375 27.8274 20.3229 28.4232 18.666 28.3595C17.0091 28.4232 15.3946 27.8274 14.1762 26.7027C12.9578 25.578 12.2349 24.0162 12.166 22.3595C12.209 20.6407 12.9049 19.0027 14.1123 17.7786C15.3197 16.5545 16.9479 15.8361 18.666 15.7695Z" fill="white"/>
<path d="M27.6062 28.0555C26.2579 28.0555 25.1302 27.5939 24.3452 26.7208C23.587 25.8775 23.1862 24.6896 23.1862 23.2855V22.4735C23.1862 21.0198 23.6096 19.7964 24.4104 18.9356C25.2201 18.0654 26.3736 17.6055 27.7462 17.6055C28.7922 17.6055 29.6788 17.8212 30.3104 18.2295C30.9655 18.6382 31.3262 19.2205 31.3262 19.8695C31.3262 20.9452 30.2211 21.2965 29.8403 21.2965C29.7282 21.2965 29.6275 21.2672 29.5409 21.2095L29.4513 21.1498L29.3942 21.0585C29.0574 20.5195 28.5687 20.2575 27.9002 20.2575C27.3134 20.2575 26.5383 20.4025 26.2983 21.5682C26.8607 21.2887 27.5098 21.1335 28.1662 21.1335C30.307 21.1335 31.6902 22.3793 31.6902 24.3075V24.3775C31.6902 25.4242 31.2758 26.3692 30.5232 27.0384C29.7856 27.6943 28.7497 28.0555 27.6062 28.0555ZM26.2636 23.986C26.3587 25.001 26.7961 25.5155 27.5642 25.5155C28.2641 25.5155 28.7162 25.1182 28.7162 24.5035V24.4335C28.7162 24.0171 28.5983 23.4635 27.5782 23.4635C27.1316 23.4635 26.6434 23.6602 26.2636 23.986ZM18.6602 28.0555C17.3066 28.0555 16.173 27.6008 15.382 26.7407C14.6076 25.8986 14.1982 24.7038 14.1982 23.2855V22.3895C14.1982 20.9721 14.6093 19.775 15.3868 18.9277C16.1806 18.0627 17.3125 17.6055 18.6602 17.6055C20.0079 17.6055 21.1375 18.0603 21.9267 18.9207C22.6997 19.7634 23.1082 20.9581 23.1082 22.3755V23.2575C23.1082 24.6815 22.7001 25.8823 21.9279 26.7301C21.1382 27.5972 20.0083 28.0555 18.6602 28.0555ZM18.6602 20.2715C18.2063 20.2715 17.8784 20.412 17.6578 20.7012C17.4134 21.0216 17.2842 21.5473 17.2842 22.2215V23.4115C17.2842 23.8938 17.2842 25.3615 18.6602 25.3615C19.004 25.3615 20.0502 25.3615 20.0502 23.4115V22.2495C20.0502 20.937 19.5826 20.2715 18.6602 20.2715Z" fill="url(#paint2_linear_5621_2818)"/>
<path d="M27.6062 27.5555C29.7202 27.5555 31.1902 26.2395 31.1902 24.3775V24.3075C31.1902 22.6135 29.9722 21.6335 28.1662 21.6335C27.1302 21.6335 26.2482 22.0535 25.7162 22.5855C25.7162 22.1655 25.7162 22.1095 25.7442 21.9135C25.8702 20.4995 26.5982 19.7575 27.9002 19.7575C28.8802 19.7575 29.4682 20.2335 29.8182 20.7935C29.8602 20.8215 30.8262 20.6675 30.8262 19.8695C30.8262 19.4075 30.5602 18.9735 30.0422 18.6515C29.5242 18.3155 28.7542 18.1055 27.7462 18.1055C25.2402 18.1055 23.6862 19.7715 23.6862 22.4735V23.2855C23.6862 25.8615 25.1282 27.5555 27.6062 27.5555ZM27.5782 22.9635C28.6282 22.9635 29.2162 23.4815 29.2162 24.4335V24.5035C29.2162 25.3995 28.5302 26.0155 27.5642 26.0155C26.5002 26.0155 25.8562 25.2595 25.7582 23.9435V23.7755C26.2062 23.3135 26.8782 22.9635 27.5782 22.9635ZM18.6602 27.5555C21.1242 27.5555 22.6082 25.8895 22.6082 23.2575V22.3755C22.6082 19.7575 21.1242 18.1055 18.6602 18.1055C16.1962 18.1055 14.6982 19.7715 14.6982 22.3895V23.2855C14.6982 25.9035 16.1822 27.5555 18.6602 27.5555ZM18.6602 19.7715C19.8642 19.7715 20.5502 20.6535 20.5502 22.2495V23.4115C20.5502 25.0075 19.8922 25.8615 18.6602 25.8615C17.4422 25.8615 16.7842 24.9935 16.7842 23.4115V22.2215C16.7842 20.6255 17.4282 19.7715 18.6602 19.7715ZM27.6062 28.5555C26.1121 28.5555 24.8559 28.0366 23.9734 27.055C23.6293 26.6724 23.3516 26.2286 23.1434 25.733C22.9313 26.234 22.6482 26.6818 22.2976 27.0668C21.4106 28.0407 20.1528 28.5555 18.6602 28.5555C15.6459 28.5555 13.6982 26.4869 13.6982 23.2855V22.3895C13.6982 20.8448 14.1548 19.5308 15.0185 18.5896C15.9094 17.6187 17.1687 17.1055 18.6602 17.1055C20.8185 17.1055 22.4283 18.1718 23.1646 19.9583C23.3847 19.4454 23.6792 18.9875 24.0444 18.595C24.951 17.6206 26.2311 17.1055 27.7462 17.1055C28.8868 17.1055 29.8657 17.348 30.5781 17.8071C31.3714 18.3034 31.8262 19.0546 31.8262 19.8695C31.8262 20.6612 31.3891 21.1836 30.887 21.4823C31.7113 22.1294 32.1902 23.1117 32.1902 24.3075V24.3775C32.1902 26.7984 30.2624 28.5555 27.6062 28.5555ZM26.7985 24.2099C26.9498 25.0154 27.3718 25.0155 27.5642 25.0155C27.8077 25.0155 28.2162 24.9489 28.2162 24.5035V24.4335C28.2162 24.1813 28.2162 23.9635 27.5782 23.9635C27.3225 23.9635 27.0453 24.0536 26.7985 24.2099ZM18.6602 20.7715C18.233 20.7715 18.1085 20.9347 18.0554 21.0044C17.8805 21.2336 17.7842 21.6659 17.7842 22.2215V23.4115C17.7842 24.8615 18.3759 24.8615 18.6602 24.8615C18.9713 24.8615 19.5502 24.8615 19.5502 23.4115V22.2495C19.5502 21.6984 19.4483 21.2619 19.2631 21.0204C19.1743 20.9045 19.0255 20.7715 18.6602 20.7715Z" fill="white"/>
<defs>
<linearGradient id="paint0_linear_5621_2818" x1="5.49697" y1="3.90104" x2="26.6146" y2="27.1622" gradientUnits="userSpaceOnUse">
<stop stop-color="#BB2B91"/>
<stop offset="1" stop-color="#FF8EE5"/>
</linearGradient>
<linearGradient id="paint1_linear_5621_2818" x1="9.56605" y1="8.27239" x2="22.6286" y2="22.6602" gradientUnits="userSpaceOnUse">
<stop stop-color="#BB2B91"/>
<stop offset="1" stop-color="#FF8EE5"/>
</linearGradient>
<linearGradient id="paint2_linear_5621_2818" x1="31.6902" y1="31.1591" x2="23.2392" y2="8.40582" gradientUnits="userSpaceOnUse">
<stop stop-color="#BB2B91"/>
<stop offset="0.118" stop-color="#C23599"/>
<stop offset="1" stop-color="#FF8EE5"/>
</linearGradient>
</defs>
</svg>
