<svg width="93" height="22" viewBox="0 0 93 22" fill="none" xmlns="http://www.w3.org/2000/svg">
<path d="M86.0615 0.0466431H83.7787C84.8288 1.21214 85.5137 2.79722 85.5137 4.56878V17.8089C85.5137 20.2797 86.8833 21.8182 89.1205 21.8182C91.3576 21.8182 92.7273 20.2797 92.7273 17.8089V6.7133C92.7273 0.0466431 86.0615 0.0466431 86.0615 0.0466431Z" fill="#AD2184"/>
<path d="M74.6475 0.0466431C72.4104 0.0466431 71.0407 1.5851 71.0407 4.05596V12.2145C71.0407 14.6387 69.9906 16.2238 67.4339 16.2238C64.8772 16.2238 63.8271 14.6387 63.8271 12.2145V4.05596C63.8271 1.5851 62.4574 0.0466431 60.2202 0.0466431C57.9831 0.0466431 56.6134 1.5851 56.6134 4.05596V12.2145C56.6134 14.6387 55.5633 16.2238 53.0066 16.2238C50.4499 16.2238 49.3998 14.6387 49.3998 12.2145V4.05596C49.3998 1.5851 48.0301 0.0466431 45.7929 0.0466431C43.5558 0.0466431 42.1861 1.5851 42.1861 4.05596V12.2611C42.1861 19.3007 46.7974 21.8182 53.0066 21.8182C55.8373 21.8182 58.3484 21.3054 60.2202 20.0466C62.1378 21.3054 64.6032 21.8182 67.4339 21.8182C73.6431 21.8182 78.2544 19.3007 78.2544 12.2611V4.05596C78.3 1.53848 76.8847 0.0466431 74.6475 0.0466431Z" fill="#AD2184"/>
<path d="M25.2934 0.0466431C19.0842 0.0466431 14.473 2.56412 14.473 9.60374V17.8089C14.473 20.2797 15.8426 21.8182 18.0798 21.8182C20.3169 21.8182 21.6866 20.3263 21.6866 17.8089V9.65036C21.6866 7.22612 22.7367 5.64104 25.2934 5.64104C27.8502 5.64104 28.9002 7.22612 28.9002 9.65036V17.8089C28.9002 20.2797 30.2699 21.8182 32.5071 21.8182C34.7442 21.8182 36.1139 20.3263 36.1139 17.8089V9.60374C36.1139 2.56412 31.5026 0.0466431 25.2934 0.0466431Z" fill="#AD2184"/>
<path d="M7.21365 4.00932C7.21365 1.53846 5.84397 0 3.60682 0C1.36968 0 0 1.53846 0 4.00932V15.1049C0 21.7715 6.66577 21.7715 6.66577 21.7715H8.94857C7.89849 20.606 7.21365 19.021 7.21365 17.2494V4.00932Z" fill="#AD2184"/>
</svg>
