<svg width="40" height="40" viewBox="0 0 40 40" fill="none" xmlns="http://www.w3.org/2000/svg">
<rect width="40" height="40" fill="white"/>
<path d="M31.1466 1.45339H16.1186C15.5723 1.44719 15.0301 1.54865 14.523 1.752C14.0159 1.95534 13.5539 2.25658 13.1632 2.63852C12.7726 3.02045 12.4609 3.4756 12.2462 3.97797C12.0314 4.48033 11.9178 5.02008 11.9116 5.56639V34.4384C11.9178 34.9847 12.0314 35.5245 12.2462 36.0268C12.4609 36.5292 12.7726 36.9843 13.1632 37.3663C13.5539 37.7482 14.0159 38.0494 14.523 38.2528C15.0301 38.4561 15.5723 38.5576 16.1186 38.5514H31.1466C31.6929 38.5576 32.2351 38.4561 32.7422 38.2528C33.2493 38.0494 33.7114 37.7482 34.102 37.3663C34.4927 36.9843 34.8043 36.5292 35.019 36.0268C35.2338 35.5245 35.3475 34.9847 35.3536 34.4384V5.56639C35.3475 5.02008 35.2338 4.48033 35.019 3.97797C34.8043 3.4756 34.4927 3.02045 34.102 2.63852C33.7114 2.25658 33.2493 1.95534 32.7422 1.752C32.2351 1.54865 31.6929 1.44719 31.1466 1.45339ZM32.2196 34.4384C32.2162 34.7197 32.1013 34.9882 31.9001 35.1848C31.6989 35.3815 31.4279 35.4903 31.1466 35.4874H16.1186C15.8373 35.4903 15.5663 35.3815 15.3651 35.1848C15.164 34.9882 15.049 34.7197 15.0456 34.4384V5.56639C15.049 5.28508 15.164 5.01662 15.3651 4.81994C15.5663 4.62327 15.8373 4.51446 16.1186 4.51739H31.1466C31.4279 4.51446 31.6989 4.62327 31.9001 4.81994C32.1013 5.01662 32.2162 5.28508 32.2196 5.56639V34.4384Z" fill="url(#paint0_linear_2917_21278)" stroke="white"/>
<path d="M26.0367 32.9326H21.2267C20.8823 32.9033 20.5403 33.0106 20.2744 33.2314C20.0085 33.4522 19.8401 33.7687 19.8057 34.1126C19.8411 34.4557 20.0099 34.7712 20.2757 34.9912C20.5414 35.2111 20.8829 35.3179 21.2267 35.2886H26.0367C26.3806 35.3182 26.7223 35.2115 26.9883 34.9915C27.2543 34.7716 27.4232 34.4559 27.4587 34.1126C27.4242 33.7685 27.2557 33.4518 26.9896 33.231C26.7235 33.0102 26.3812 32.903 26.0367 32.9326Z" fill="url(#paint1_linear_2917_21278)" stroke="white"/>
<path d="M6.63232 1L11.8323 1.766L16.9853 5.123V16H8.83232L6.63232 1Z" fill="white"/>
<path d="M8.99656 1.0046C8.82122 1.00824 8.64993 1.0579 8.49986 1.14865C8.34979 1.23939 8.22623 1.36802 8.14156 1.5216L6.86756 3.8666L4.52256 5.14358C4.3643 5.23066 4.23233 5.35863 4.14041 5.51412C4.04849 5.66962 4 5.84695 4 6.02758C4 6.20821 4.04849 6.38554 4.14041 6.54104C4.23233 6.69654 4.3643 6.8245 4.52256 6.91158L6.86756 8.18859L8.14456 10.5336C8.22965 10.6941 8.35686 10.8284 8.51252 10.922C8.66817 11.0157 8.8464 11.0651 9.02806 11.0651C9.20972 11.0651 9.38795 11.0157 9.5436 10.922C9.69926 10.8284 9.82646 10.6941 9.91156 10.5336L11.1966 8.18859L13.5306 6.91158C13.6886 6.82442 13.8203 6.69649 13.9121 6.5411C14.0038 6.38571 14.0522 6.20856 14.0522 6.0281C14.0522 5.84764 14.0038 5.67046 13.9121 5.51507C13.8203 5.35968 13.6886 5.23175 13.5306 5.14459L11.1966 3.86758L9.90856 1.5216C9.81982 1.35872 9.68752 1.22372 9.52647 1.13171C9.36541 1.0397 9.18194 0.994291 8.99656 1.00057V1.0046ZM9.02356 4.0986L9.56756 5.0866C9.65989 5.25545 9.79871 5.39427 9.96756 5.4866L10.9556 6.02657L9.96756 6.57058C9.79851 6.66264 9.65962 6.80152 9.56756 6.97057L9.02356 7.95858L8.49156 6.97057C8.3995 6.80152 8.26061 6.66264 8.09156 6.57058L7.10356 6.02657L8.09156 5.4866C8.26061 5.39454 8.3995 5.25566 8.49156 5.0866L9.02356 4.0986ZM21.7526 5.3666C21.5534 5.36561 21.3584 5.42382 21.1923 5.53387C21.0263 5.64392 20.8967 5.80083 20.82 5.98467C20.7433 6.16852 20.723 6.37102 20.7616 6.56643C20.8003 6.76185 20.8961 6.94136 21.0369 7.08221C21.1778 7.22306 21.3573 7.31889 21.5527 7.35751C21.7481 7.39613 21.9506 7.37581 22.1345 7.29913C22.3183 7.22244 22.4752 7.09285 22.5853 6.92681C22.6953 6.76078 22.7535 6.56579 22.7526 6.3666C22.7512 6.10179 22.6455 5.8482 22.4582 5.66094C22.271 5.47369 22.0174 5.36792 21.7526 5.3666ZM16.7256 6.39459C16.5487 6.39971 16.3764 6.45164 16.2262 6.5451C16.076 6.63856 15.9533 6.77022 15.8706 6.9266L14.5936 9.26058L12.2526 10.5456C12.0943 10.6327 11.9623 10.7606 11.8704 10.9161C11.7785 11.0716 11.73 11.249 11.73 11.4296C11.73 11.6102 11.7785 11.7876 11.8704 11.943C11.9623 12.0985 12.0943 12.2265 12.2526 12.3136L14.5936 13.5906L15.8676 15.9316C15.9527 16.0921 16.0799 16.2264 16.2355 16.32C16.3912 16.4137 16.5694 16.4632 16.7511 16.4632C16.9327 16.4632 17.1109 16.4137 17.2666 16.32C17.4223 16.2264 17.5495 16.0921 17.6346 15.9316L18.9116 13.5906L21.2566 12.3136C21.4146 12.2264 21.5463 12.0985 21.6381 11.9431C21.7298 11.7877 21.7782 11.6105 21.7782 11.4301C21.7782 11.2496 21.7298 11.0725 21.6381 10.9171C21.5463 10.7617 21.4146 10.6338 21.2566 10.5466L18.9116 9.26159L17.6346 6.92159C17.5468 6.75741 17.4149 6.62099 17.2538 6.5277C17.0926 6.43442 16.9087 6.38796 16.7226 6.39358L16.7256 6.39459ZM16.7526 9.49459L17.2926 10.4826C17.3849 10.6514 17.5237 10.7902 17.6926 10.8826L18.6806 11.4226L17.6926 11.9546C17.5237 12.0469 17.3849 12.1857 17.2926 12.3546L16.7526 13.3426L16.2086 12.3546C16.1165 12.1855 15.9776 12.0466 15.8086 11.9546L14.8206 11.4226L15.8086 10.8786C15.9776 10.7865 16.1165 10.6477 16.2086 10.4786L16.7526 9.49459ZM7.69956 12.4216C7.50066 12.4206 7.30595 12.4787 7.14006 12.5884C6.97418 12.6981 6.84459 12.8546 6.7677 13.038C6.69081 13.2215 6.67007 13.4236 6.70812 13.6188C6.74617 13.8141 6.84129 13.9936 6.98144 14.1347C7.12159 14.2759 7.30047 14.3722 7.49542 14.4116C7.69038 14.4511 7.89264 14.4317 8.07661 14.3561C8.26057 14.2805 8.41797 14.152 8.52886 13.9869C8.63975 13.8218 8.69916 13.6275 8.69956 13.4286C8.70048 13.2967 8.6753 13.1659 8.62546 13.0438C8.57562 12.9216 8.5021 12.8105 8.40915 12.7169C8.3162 12.6233 8.20565 12.5491 8.08387 12.4984C7.96208 12.4477 7.83147 12.4216 7.69956 12.4216Z" fill="url(#paint2_linear_2917_21278)"/>
<path d="M20.1436 26.6995C22.3736 26.6995 23.7166 25.1915 23.7166 22.8095V22.0095C23.7166 19.6445 22.3736 18.1445 20.1436 18.1445C17.9136 18.1445 16.5576 19.6545 16.5576 22.0235V22.8345C16.5576 25.2045 17.9006 26.6995 20.1436 26.6995ZM20.1436 25.1665C19.0436 25.1665 18.4436 24.3805 18.4436 22.9495V21.8715C18.4436 20.4275 19.0266 19.6545 20.1436 19.6545C21.2336 19.6545 21.8546 20.4545 21.8546 21.8975V22.9445C21.8536 24.3935 21.2586 25.1665 20.1436 25.1665ZM26.3526 26.6105C26.5574 26.603 26.7557 26.5369 26.9241 26.4201C27.0924 26.3033 27.2238 26.1407 27.3026 25.9515L30.1406 20.7695C30.4368 20.3557 30.6321 19.8783 30.7106 19.3755V19.2445C30.7106 18.7635 30.5456 18.3195 29.4946 18.3195H25.1106C24.5656 18.3195 24.2866 18.5345 24.2866 19.0415V19.1555C24.2866 19.6755 24.5656 19.8905 25.1106 19.8905H28.6966L25.3126 25.9395C25.2366 26.0655 25.7436 26.6105 26.3516 26.6105H26.3526Z" fill="url(#paint3_linear_2917_21278)"/>
<defs>
<linearGradient id="paint0_linear_2917_21278" x1="15.8968" y1="6.16464" x2="39.4743" y2="21.7539" gradientUnits="userSpaceOnUse">
<stop stop-color="#BB2B91"/>
<stop offset="1" stop-color="#FF8EE5"/>
</linearGradient>
<linearGradient id="paint1_linear_2917_21278" x1="21.1067" y1="33.2282" x2="21.9946" y2="36.2339" gradientUnits="userSpaceOnUse">
<stop stop-color="#BB2B91"/>
<stop offset="1" stop-color="#FF8EE5"/>
</linearGradient>
<linearGradient id="paint2_linear_2917_21278" x1="7.18794" y1="2.96382" x2="17.5725" y2="16.1415" gradientUnits="userSpaceOnUse">
<stop stop-color="#BB2B91"/>
<stop offset="1" stop-color="#FF8EE5"/>
</linearGradient>
<linearGradient id="paint3_linear_2917_21278" x1="24.1153" y1="25.6302" x2="22.164" y2="16.6376" gradientUnits="userSpaceOnUse">
<stop stop-color="#BB2B91"/>
<stop offset="0.862" stop-color="#FD8BE2"/>
<stop offset="1" stop-color="#FF8EE5"/>
</linearGradient>
</defs>
</svg>
