<svg width="24" height="25" viewBox="0 0 24 25" fill="none" xmlns="http://www.w3.org/2000/svg">
<path d="M14.2753 4.05599C14.3008 3.96081 14.3447 3.87158 14.4047 3.79339C14.4647 3.7152 14.5394 3.6496 14.6248 3.60032C14.7101 3.55104 14.8043 3.51906 14.902 3.5062C14.9996 3.49334 15.0989 3.49985 15.1941 3.52537C16.5844 3.88813 17.853 4.61497 18.869 5.63103C19.8851 6.64708 20.6119 7.91562 20.9747 9.30599C21.0002 9.40116 21.0067 9.50042 20.9939 9.59811C20.981 9.69579 20.949 9.78999 20.8997 9.87531C20.8505 9.96063 20.7849 10.0354 20.7067 10.0954C20.6285 10.1553 20.5393 10.1993 20.4441 10.2247C20.3807 10.2414 20.3155 10.2499 20.25 10.2501C20.0847 10.2501 19.9241 10.1955 19.793 10.0948C19.662 9.99405 19.5679 9.85288 19.5253 9.69318C19.2295 8.55817 18.6363 7.52259 17.8069 6.6932C16.9775 5.86381 15.9419 5.27061 14.8069 4.97474C14.7116 4.94938 14.6223 4.90549 14.544 4.84558C14.4657 4.78566 14.4 4.7109 14.3506 4.62557C14.3013 4.54024 14.2692 4.44601 14.2563 4.34828C14.2433 4.25054 14.2498 4.15122 14.2753 4.05599ZM14.0569 7.97474C15.3497 8.31974 16.1803 9.15037 16.5253 10.4432C16.5679 10.6029 16.662 10.744 16.793 10.8448C16.9241 10.9455 17.0847 11 17.25 11.0001C17.3155 10.9999 17.3807 10.9914 17.4441 10.9747C17.5393 10.9493 17.6285 10.9053 17.7067 10.8454C17.7849 10.7854 17.8505 10.7106 17.8997 10.6253C17.949 10.54 17.981 10.4458 17.9939 10.3481C18.0067 10.2504 18.0002 10.1512 17.9747 10.056C17.4947 8.25974 16.2403 7.00537 14.4441 6.52537C14.3489 6.49994 14.2497 6.49351 14.152 6.50644C14.0544 6.51938 13.9602 6.55141 13.8749 6.60073C13.7897 6.65005 13.7149 6.71568 13.655 6.79387C13.5951 6.87207 13.5512 6.96129 13.5258 7.05646C13.5004 7.15163 13.4939 7.25087 13.5069 7.34852C13.5198 7.44618 13.5518 7.54032 13.6012 7.62559C13.6505 7.71086 13.7161 7.78559 13.7943 7.84549C13.8725 7.9054 13.9617 7.94932 14.0569 7.97474ZM21.7388 16.9138C21.5716 18.1841 20.9477 19.3502 19.9837 20.1942C19.0196 21.0382 17.7813 21.5023 16.5 21.5001C9.05626 21.5001 3.00001 15.4438 3.00001 8.00005C2.99771 6.71876 3.4619 5.48045 4.30588 4.51639C5.14986 3.55234 6.31592 2.92847 7.58626 2.7613C7.9075 2.72208 8.2328 2.7878 8.51362 2.94865C8.79444 3.10951 9.0157 3.35687 9.14438 3.6538L11.1244 8.07412V8.08537C11.2229 8.31267 11.2636 8.56083 11.2428 8.80769C11.222 9.05455 11.1404 9.29242 11.0053 9.50005C10.9884 9.52537 10.9706 9.5488 10.9519 9.57224L9.00001 11.886C9.7022 13.3129 11.1947 14.7922 12.6403 15.4963L14.9222 13.5547C14.9446 13.5359 14.9681 13.5184 14.9925 13.5022C15.2 13.3639 15.4387 13.2794 15.687 13.2565C15.9353 13.2336 16.1854 13.2729 16.4147 13.371L16.4269 13.3766L20.8434 15.3557C21.1409 15.4839 21.3889 15.705 21.5503 15.9858C21.7116 16.2667 21.7778 16.5922 21.7388 16.9138ZM20.25 16.7263C20.25 16.7263 20.2434 16.7263 20.2397 16.7263L15.8334 14.7529L13.5506 16.6944C13.5285 16.7132 13.5053 16.7307 13.4813 16.7469C13.2654 16.8909 13.0159 16.9765 12.7571 16.9952C12.4983 17.0139 12.239 16.9652 12.0047 16.8538C10.2488 16.0054 8.49845 14.2682 7.64907 12.531C7.5366 12.2984 7.48613 12.0406 7.50255 11.7827C7.51898 11.5249 7.60174 11.2756 7.74282 11.0591C7.75872 11.0337 7.77659 11.0096 7.79626 10.9869L9.75001 8.67037L7.78126 4.26412C7.78089 4.26038 7.78089 4.25661 7.78126 4.25287C6.87212 4.37146 6.03739 4.8174 5.43339 5.50716C4.8294 6.19693 4.49755 7.08322 4.50001 8.00005C4.50348 11.1816 5.76888 14.2318 8.01856 16.4815C10.2682 18.7312 13.3185 19.9966 16.5 20.0001C17.4163 20.0032 18.3023 19.6725 18.9925 19.0698C19.6827 18.4671 20.1297 17.6337 20.25 16.7254V16.7263Z" fill="#AD2184"/>
</svg>
