<svg  viewBox="0 0 32 39" fill="none" xmlns="http://www.w3.org/2000/svg">
<path d="M15.7511 0.999998L15.7489 1L15.0328 36.7734C15.243 36.9207 15.4934 36.9996 15.75 36.9996C16.0066 36.9996 16.257 36.9207 16.4672 36.7734L17.0395 37.5935C17.0398 37.5933 17.04 37.5931 17.0402 37.593C17.3468 37.379 20.678 35.0094 23.944 31.1836C27.1984 27.3713 30.5 21.9816 30.5 15.75V15.7489C30.4956 11.8386 28.9402 8.08973 26.1753 5.32474C23.4103 2.55975 19.6614 1.00444 15.7511 0.999998ZM15.75 11.75C16.5411 11.75 17.3145 11.9846 17.9723 12.4241C18.6301 12.8636 19.1428 13.4884 19.4455 14.2193C19.7483 14.9502 19.8275 15.7544 19.6731 16.5304C19.5188 17.3063 19.1378 18.019 18.5784 18.5784C18.019 19.1378 17.3063 19.5188 16.5304 19.6731C15.7544 19.8275 14.9502 19.7483 14.2193 19.4455C13.4884 19.1428 12.8636 18.6301 12.4241 17.9723C11.9846 17.3145 11.75 16.5411 11.75 15.75C11.75 14.6891 12.1714 13.6717 12.9216 12.9216C13.6717 12.1714 14.6891 11.75 15.75 11.75Z" fill="white" stroke="#AD2184" stroke-width="2"/>
</svg>
