<svg width="56" height="64" viewBox="0 0 56 64" fill="none" xmlns="http://www.w3.org/2000/svg">
<g filter="url(#filter0_dd_865_33505)">
<rect x="21" y="11" width="14" height="14" fill="#450D34"/>
<path d="M28.0011 3.5L27.9989 3.5L27.2828 39.2734C27.493 39.4207 27.7434 39.4996 28 39.4996C28.2566 39.4996 28.507 39.4207 28.7172 39.2734L29.2895 40.0935C29.2898 40.0933 29.29 40.0931 29.2902 40.093C29.5968 39.879 32.928 37.5094 36.194 33.6836C39.4484 29.8713 42.75 24.4816 42.75 18.25V18.2489C42.7456 14.3386 41.1902 10.5897 38.4253 7.82474C35.6603 5.05975 31.9114 3.50444 28.0011 3.5ZM28 14.25C28.7911 14.25 29.5645 14.4846 30.2223 14.9241C30.8801 15.3636 31.3928 15.9884 31.6955 16.7193C31.9983 17.4502 32.0775 18.2544 31.9231 19.0304C31.7688 19.8063 31.3878 20.519 30.8284 21.0784C30.269 21.6378 29.5563 22.0188 28.7804 22.1731C28.0044 22.3275 27.2002 22.2483 26.4693 21.9455C25.7384 21.6428 25.1136 21.1301 24.6741 20.4723C24.2346 19.8145 24 19.0411 24 18.25C24 17.1891 24.4214 16.1717 25.1716 15.4216C25.9217 14.6714 26.9391 14.25 28 14.25Z" fill="#AD2184" stroke="#450D34" stroke-width="2"/>
</g>
<defs>
<filter id="filter0_dd_865_33505" x="-4" y="0" width="64" height="64" filterUnits="userSpaceOnUse" color-interpolation-filters="sRGB">
<feFlood flood-opacity="0" result="BackgroundImageFix"/>
<feColorMatrix in="SourceAlpha" type="matrix" values="0 0 0 0 0 0 0 0 0 0 0 0 0 0 0 0 0 0 127 0" result="hardAlpha"/>
<feMorphology radius="4" operator="erode" in="SourceAlpha" result="effect1_dropShadow_865_33505"/>
<feOffset dy="4"/>
<feGaussianBlur stdDeviation="3"/>
<feComposite in2="hardAlpha" operator="out"/>
<feColorMatrix type="matrix" values="0 0 0 0 0 0 0 0 0 0 0 0 0 0 0 0 0 0 0.1 0"/>
<feBlend mode="normal" in2="BackgroundImageFix" result="effect1_dropShadow_865_33505"/>
<feColorMatrix in="SourceAlpha" type="matrix" values="0 0 0 0 0 0 0 0 0 0 0 0 0 0 0 0 0 0 127 0" result="hardAlpha"/>
<feMorphology radius="3" operator="erode" in="SourceAlpha" result="effect2_dropShadow_865_33505"/>
<feOffset dy="10"/>
<feGaussianBlur stdDeviation="7.5"/>
<feComposite in2="hardAlpha" operator="out"/>
<feColorMatrix type="matrix" values="0 0 0 0 0 0 0 0 0 0 0 0 0 0 0 0 0 0 0.1 0"/>
<feBlend mode="normal" in2="effect1_dropShadow_865_33505" result="effect2_dropShadow_865_33505"/>
<feBlend mode="normal" in="SourceGraphic" in2="effect2_dropShadow_865_33505" result="shape"/>
</filter>
</defs>
</svg>
