<svg width="19" height="21" viewBox="0 0 19 21" fill="none" xmlns="http://www.w3.org/2000/svg">
<path d="M14.4992 13.5001C13.9989 13.4999 13.5037 13.6001 13.0428 13.7948C12.5819 13.9895 12.1648 14.2747 11.8161 14.6335L7.49425 11.8557C7.83421 10.9839 7.83421 10.0162 7.49425 9.14445L11.8161 6.36664C12.4653 7.03162 13.3383 7.43187 14.2658 7.48979C15.1933 7.5477 16.1093 7.25915 16.8361 6.68009C17.563 6.10102 18.0489 5.27269 18.1998 4.35569C18.3506 3.43869 18.1555 2.49835 17.6525 1.71698C17.1494 0.935618 16.3741 0.368892 15.4768 0.126682C14.5796 -0.115529 13.6245 -0.0159678 12.7965 0.406062C11.9685 0.828092 11.3268 1.54252 10.9956 2.41084C10.6645 3.27917 10.6676 4.23951 11.0042 5.1057L6.68237 7.88351C6.16194 7.34921 5.49399 6.98224 4.76391 6.82952C4.03383 6.6768 3.2748 6.74527 2.58384 7.02617C1.89287 7.30707 1.30137 7.78764 0.884947 8.40645C0.468523 9.02526 0.246094 9.75419 0.246094 10.5001C0.246094 11.246 0.468523 11.9749 0.884947 12.5937C1.30137 13.2125 1.89287 13.6931 2.58384 13.974C3.2748 14.2549 4.03383 14.3233 4.76391 14.1706C5.49399 14.0179 6.16194 13.6509 6.68237 13.1166L11.0042 15.8944C10.7147 16.6412 10.6719 17.461 10.882 18.2339C11.0921 19.0067 11.5441 19.692 12.1719 20.1894C12.7997 20.6867 13.5702 20.97 14.3706 20.9978C15.171 21.0256 15.9593 20.7964 16.6201 20.3437C17.2808 19.8911 17.7792 19.2388 18.0424 18.4823C18.3056 17.7259 18.3197 16.9051 18.0826 16.14C17.8455 15.375 17.3697 14.706 16.7249 14.231C16.0801 13.7559 15.3002 13.4998 14.4992 13.5001ZM14.4992 1.50007C14.9443 1.50007 15.3793 1.63203 15.7493 1.87927C16.1193 2.1265 16.4077 2.4779 16.578 2.88904C16.7483 3.30017 16.7928 3.75257 16.706 4.18903C16.6192 4.62548 16.4049 5.0264 16.0902 5.34106C15.7756 5.65573 15.3747 5.87002 14.9382 5.95684C14.5017 6.04366 14.0493 5.9991 13.6382 5.8288C13.2271 5.65851 12.8757 5.37012 12.6284 5.00011C12.3812 4.6301 12.2492 4.19508 12.2492 3.75007C12.2492 3.15334 12.4863 2.58104 12.9083 2.15908C13.3302 1.73713 13.9025 1.50007 14.4992 1.50007ZM3.99925 12.7501C3.55424 12.7501 3.11923 12.6181 2.74922 12.3709C2.37921 12.1236 2.09082 11.7722 1.92052 11.3611C1.75022 10.95 1.70567 10.4976 1.79248 10.0611C1.8793 9.62466 2.09359 9.22375 2.40826 8.90908C2.72293 8.59441 3.12384 8.38012 3.5603 8.29331C3.99675 8.20649 4.44915 8.25105 4.86029 8.42134C5.27142 8.59164 5.62282 8.88003 5.87006 9.25004C6.11729 9.62005 6.24925 10.0551 6.24925 10.5001C6.24925 11.0968 6.0122 11.6691 5.59024 12.0911C5.16828 12.513 4.59599 12.7501 3.99925 12.7501ZM14.4992 19.5001C14.0542 19.5001 13.6192 19.3681 13.2492 19.1209C12.8792 18.8736 12.5908 18.5222 12.4205 18.1111C12.2502 17.7 12.2057 17.2476 12.2925 16.8111C12.3793 16.3747 12.5936 15.9738 12.9083 15.6591C13.2229 15.3444 13.6238 15.1301 14.0603 15.0433C14.4968 14.9565 14.9492 15.001 15.3603 15.1713C15.7714 15.3416 16.1228 15.63 16.3701 16C16.6173 16.3701 16.7492 16.8051 16.7492 17.2501C16.7492 17.8468 16.5122 18.4191 16.0902 18.8411C15.6683 19.263 15.096 19.5001 14.4992 19.5001Z" fill="#AD2184"/>
</svg>
