<svg width="24" height="25" viewBox="0 0 24 25" fill="none" xmlns="http://www.w3.org/2000/svg">
<path opacity="0.2" d="M21.0002 7.25L18.3264 15.9416C18.232 16.2482 18.0417 16.5165 17.7835 16.707C17.5253 16.8975 17.2129 17.0002 16.892 17H7.88172C7.55572 17.0001 7.23854 16.8941 6.97821 16.6978C6.71788 16.5016 6.52856 16.2259 6.43891 15.9125L3.96484 7.25H21.0002Z" fill="#C09AD6"/>
<path d="M9 20.75C9 21.0467 8.91203 21.3367 8.7472 21.5834C8.58238 21.83 8.34811 22.0223 8.07403 22.1358C7.79994 22.2494 7.49834 22.2791 7.20736 22.2212C6.91639 22.1633 6.64912 22.0204 6.43934 21.8107C6.22956 21.6009 6.0867 21.3336 6.02882 21.0426C5.97094 20.7517 6.00065 20.4501 6.11418 20.176C6.22771 19.9019 6.41997 19.6676 6.66665 19.5028C6.91332 19.338 7.20333 19.25 7.5 19.25C7.89782 19.25 8.27936 19.408 8.56066 19.6893C8.84196 19.9706 9 20.3522 9 20.75ZM17.25 19.25C16.9533 19.25 16.6633 19.338 16.4166 19.5028C16.17 19.6676 15.9777 19.9019 15.8642 20.176C15.7506 20.4501 15.7209 20.7517 15.7788 21.0426C15.8367 21.3336 15.9796 21.6009 16.1893 21.8107C16.3991 22.0204 16.6664 22.1633 16.9574 22.2212C17.2483 22.2791 17.5499 22.2494 17.824 22.1358C18.0981 22.0223 18.3324 21.83 18.4972 21.5834C18.662 21.3367 18.75 21.0467 18.75 20.75C18.75 20.3522 18.592 19.9706 18.3107 19.6893C18.0294 19.408 17.6478 19.25 17.25 19.25ZM21.7172 7.47031L19.0425 16.1619C18.9024 16.6226 18.6175 17.0259 18.2301 17.312C17.8427 17.5981 17.3734 17.7517 16.8919 17.75H7.88156C7.3931 17.7482 6.91837 17.5882 6.52848 17.2939C6.13858 16.9997 5.85449 16.587 5.71875 16.1178L2.32687 4.25H0.75C0.551088 4.25 0.360322 4.17098 0.21967 4.03033C0.0790176 3.88968 0 3.69891 0 3.5C0 3.30109 0.0790176 3.11032 0.21967 2.96967C0.360322 2.82902 0.551088 2.75 0.75 2.75H2.32687C2.65257 2.75108 2.96916 2.85761 3.22925 3.05365C3.48934 3.24969 3.67895 3.5247 3.76969 3.8375L4.53 6.5H21C21.1174 6.49996 21.2331 6.52746 21.3379 6.58029C21.4427 6.63313 21.5336 6.70982 21.6034 6.80421C21.6732 6.89859 21.7198 7.00803 21.7396 7.12372C21.7593 7.23941 21.7517 7.35812 21.7172 7.47031ZM19.9847 8H4.95844L7.16062 15.7062C7.20543 15.8629 7.30002 16.0007 7.43009 16.0988C7.56016 16.1969 7.71864 16.25 7.88156 16.25H16.8919C17.0524 16.2501 17.2086 16.1986 17.3377 16.1033C17.4668 16.008 17.5619 15.8737 17.6091 15.7203L19.9847 8Z" fill="#C09AD6"/>
</svg>
