<svg width="24" height="25" viewBox="0 0 24 25" fill="none" xmlns="http://www.w3.org/2000/svg">
<g id="ChatCenteredDots">
<path id="Vector" d="M10.875 11.75C10.875 11.5275 10.941 11.31 11.0646 11.125C11.1882 10.94 11.3639 10.7958 11.5695 10.7106C11.775 10.6255 12.0012 10.6032 12.2195 10.6466C12.4377 10.69 12.6382 10.7972 12.7955 10.9545C12.9528 11.1118 13.06 11.3123 13.1034 11.5305C13.1468 11.7488 13.1245 11.975 13.0394 12.1805C12.9542 12.3861 12.81 12.5618 12.625 12.6854C12.44 12.809 12.2225 12.875 12 12.875C11.7016 12.875 11.4155 12.7565 11.2045 12.5455C10.9935 12.3345 10.875 12.0484 10.875 11.75ZM16.125 12.875C16.3475 12.875 16.565 12.809 16.75 12.6854C16.935 12.5618 17.0792 12.3861 17.1644 12.1805C17.2495 11.975 17.2718 11.7488 17.2284 11.5305C17.185 11.3123 17.0778 11.1118 16.9205 10.9545C16.7632 10.7972 16.5627 10.69 16.3445 10.6466C16.1262 10.6032 15.9 10.6255 15.6945 10.7106C15.4889 10.7958 15.3132 10.94 15.1896 11.125C15.066 11.31 15 11.5275 15 11.75C15 12.0484 15.1185 12.3345 15.3295 12.5455C15.5405 12.7565 15.8266 12.875 16.125 12.875ZM21.75 5.75V17.75C21.75 18.1478 21.592 18.5294 21.3107 18.8107C21.0294 19.092 20.6478 19.25 20.25 19.25H14.6747L13.2834 21.5272C13.1495 21.7484 12.9607 21.9312 12.7353 22.0579C12.5099 22.1846 12.2556 22.2509 11.997 22.2503C11.7384 22.2497 11.4844 22.1823 11.2596 22.0547C11.0347 21.927 10.8467 21.7433 10.7137 21.5216L9.32531 19.25H3.75C3.35218 19.25 2.97064 19.092 2.68934 18.8107C2.40804 18.5294 2.25 18.1478 2.25 17.75V5.75C2.25 5.35218 2.40804 4.97064 2.68934 4.68934C2.97064 4.40804 3.35218 4.25 3.75 4.25H20.25C20.6478 4.25 21.0294 4.40804 21.3107 4.68934C21.592 4.97064 21.75 5.35218 21.75 5.75ZM20.25 5.75H3.75V17.75H9.32531C9.58354 17.7507 9.83727 17.8177 10.0622 17.9446C10.2871 18.0715 10.4756 18.254 10.6097 18.4747L12 20.75L13.3894 18.47C13.5241 18.25 13.713 18.0682 13.938 17.9422C14.1631 17.8161 14.4167 17.7499 14.6747 17.75H20.25V5.75ZM7.875 12.875C8.0975 12.875 8.31501 12.809 8.50002 12.6854C8.68502 12.5618 8.82922 12.3861 8.91436 12.1805C8.99951 11.975 9.02179 11.7488 8.97838 11.5305C8.93498 11.3123 8.82783 11.1118 8.6705 10.9545C8.51316 10.7972 8.31271 10.69 8.09448 10.6466C7.87625 10.6032 7.65005 10.6255 7.44448 10.7106C7.23891 10.7958 7.06321 10.94 6.9396 11.125C6.81598 11.31 6.75 11.5275 6.75 11.75C6.75 12.0484 6.86853 12.3345 7.0795 12.5455C7.29048 12.7565 7.57663 12.875 7.875 12.875Z" fill="#AD2184"/>
</g>
</svg>
