<svg width="24" height="25" viewBox="0 0 24 25" fill="none" xmlns="http://www.w3.org/2000/svg">
<g id="DeviceMobileSpeaker">
<path id="Vector" d="M16.5 2H7.5C6.90326 2 6.33097 2.23705 5.90901 2.65901C5.48705 3.08097 5.25 3.65326 5.25 4.25V20.75C5.25 21.3467 5.48705 21.919 5.90901 22.341C6.33097 22.7629 6.90326 23 7.5 23H16.5C17.0967 23 17.669 22.7629 18.091 22.341C18.5129 21.919 18.75 21.3467 18.75 20.75V4.25C18.75 3.65326 18.5129 3.08097 18.091 2.65901C17.669 2.23705 17.0967 2 16.5 2ZM17.25 20.75C17.25 20.9489 17.171 21.1397 17.0303 21.2803C16.8897 21.421 16.6989 21.5 16.5 21.5H7.5C7.30109 21.5 7.11032 21.421 6.96967 21.2803C6.82902 21.1397 6.75 20.9489 6.75 20.75V4.25C6.75 4.05109 6.82902 3.86032 6.96967 3.71967C7.11032 3.57902 7.30109 3.5 7.5 3.5H16.5C16.6989 3.5 16.8897 3.57902 17.0303 3.71967C17.171 3.86032 17.25 4.05109 17.25 4.25V20.75ZM15.75 5.75C15.75 5.94891 15.671 6.13968 15.5303 6.28033C15.3897 6.42098 15.1989 6.5 15 6.5H9C8.80109 6.5 8.61032 6.42098 8.46967 6.28033C8.32902 6.13968 8.25 5.94891 8.25 5.75C8.25 5.55109 8.32902 5.36032 8.46967 5.21967C8.61032 5.07902 8.80109 5 9 5H15C15.1989 5 15.3897 5.07902 15.5303 5.21967C15.671 5.36032 15.75 5.55109 15.75 5.75Z" fill="#AD2184"/>
</g>
</svg>
